static_grf.mot
version=1
nRows=10
nColumns 19
inDegrees=yes
endheader
time	1_ground_force_vx	1_ground_force_vy	1_ground_force_vz	1_ground_force_px	1_ground_force_py	1_ground_force_pz	1_ground_torque_x	1_ground_torque_y	1_ground_torque_z	2_ground_force_vx	2_ground_force_vy	2_ground_force_vz	2_ground_force_px	2_ground_force_py	2_ground_force_pz	2_ground_torque_x	2_ground_torque_y	2_ground_torque_z
            0.902500	            1.360777	          253.196900	          -23.084467	           -0.256858	            0.006400	           -0.447501	            0.006886	            1.281257	           -0.116815	           -3.564541	          224.744736	           26.144620	           -0.217982	            0.005884	           -0.750168	            0.011879	           -0.748948	           -0.087125
            0.903000	            1.131709	          253.016394	          -23.038816	           -0.257068	            0.006401	           -0.447783	            0.005677	            1.269178	           -0.115567	           -3.475370	          226.033116	           26.430749	           -0.217752	            0.005886	           -0.750482	            0.010770	           -0.700461	           -0.081907
            0.903500	            1.084793	          252.657820	          -23.498807	           -0.256808	            0.006403	           -0.448211	            0.005393	            1.255990	           -0.116815	           -3.566535	          225.297189	           26.146592	           -0.217784	            0.005885	           -0.750208	            0.011330	           -0.715690	           -0.083059
            0.904000	            1.039549	          253.738029	          -23.173064	           -0.257234	            0.006400	           -0.447555	            0.005232	            1.277011	           -0.116625	           -3.518315	          224.928742	           26.239114	           -0.218083	            0.005883	           -0.750155	            0.011499	           -0.735159	           -0.085760
            0.904500	            1.314544	          252.837147	          -23.269323	           -0.257273	            0.006402	           -0.448178	            0.006599	            1.269247	           -0.116812	           -3.421292	          224.008316	           26.235789	           -0.218113	            0.005882	           -0.749646	            0.011050	           -0.723517	           -0.084738
            0.905000	            1.314544	          252.837147	          -23.269323	           -0.256736	            0.006402	           -0.448178	            0.006820	            1.311653	           -0.120715	           -3.515012	          224.008145	           26.188900	           -0.217840	            0.005882	           -0.749558	            0.012017	           -0.765835	           -0.089534
            0.905500	            1.314643	          252.296350	          -23.271642	           -0.257309	            0.006404	           -0.448591	            0.006814	            1.307682	           -0.120620	           -3.658905	          224.928569	           26.145317	           -0.217966	            0.005885	           -0.750492	            0.010374	           -0.637711	           -0.074126
            0.906000	            1.314496	          252.476812	          -23.316725	           -0.257143	            0.006403	           -0.448238	            0.006790	            1.304238	           -0.120449	           -3.802840	          225.849298	           26.007878	           -0.218091	            0.005885	           -0.750494	            0.011423	           -0.678430	           -0.078125
            0.906500	            1.131122	          253.738243	          -23.219147	           -0.257221	            0.006398	           -0.447265	            0.005650	            1.267353	           -0.115973	           -3.566535	          225.297189	           26.146592	           -0.218036	            0.005883	           -0.750042	            0.011274	           -0.712181	           -0.082651
            0.907000	            1.222924	          252.476597	          -23.270642	           -0.257342	            0.006402	           -0.448159	            0.005891	            1.216195	           -0.112096	           -3.663455	          226.216748	           26.384557	           -0.218285	            0.005883	           -0.750301	            0.010702	           -0.660852	           -0.077078
